<?xml version="1.0" encoding="utf-8"?>
<!-- Generator: Adobe Illustrator 19.0.0, SVG Export Plug-In . SVG Version: 6.00 Build 0)  -->
<svg version="1.1" id="Capa_1" xmlns="http://www.w3.org/2000/svg" xmlns:xlink="http://www.w3.org/1999/xlink" x="0px" y="0px"
	 viewBox="-49 141 512 512" style="enable-background:new -49 141 512 512;" xml:space="preserve">
<path d="M-45.9,355.5L94.4,495.8L-36.7,626.9c-3.8,3.8-3.8,9.9,0,13.7c1.9,1.9,4.4,2.8,6.8,2.8c2.5,0,4.9-0.9,6.8-2.8L108,509.5
	l140.7,140.7c1.8,1.8,4.3,2.8,6.8,2.8c0.6,0,1.3-0.1,2-0.2c3.2-0.7,5.8-2.9,7-5.9c31-77.9,5.4-155.6-3-177.1l122.9-144.4
	c13.3,1.1,47.8,1.4,74.6-19.8c2.2-1.7,3.5-4.3,3.6-7c0.2-2.8-0.9-5.4-2.8-7.4L312.6,143.8c-1.9-1.9-4.6-2.9-7.4-2.8
	c-2.7,0.2-5.3,1.5-7,3.6c-1.1,1.3-24.9,31.5-19.8,75.6L134.7,342.5c-21.1-9.2-94.5-35.8-177.3-2.8c-3,1.2-5.2,3.8-5.9,7
	C-49.2,349.9-48.2,353.2-45.9,355.5z M-21.5,352.6c82-25.9,152.5,9.4,153.3,9.8c3.4,1.7,7.7,1.3,10.7-1.2l152.5-129.7
	c2.6-2.2,3.8-5.6,3.3-8.9c-4.1-25,3.5-45.3,9.3-56.5l130.4,130.4c-25.3,13.8-55.6,9.3-56,9.2c-0.5-0.1-1-0.1-1.5-0.1
	c-2.8,0-5.5,1.2-7.4,3.4l-130,152.8c-2.4,2.8-3,6.8-1.4,10.2c0.4,0.8,33.5,76.3,9.9,153.7L121.9,496L-21.5,352.6z"/>
</svg>
